<?xml version="1.0" encoding="utf-8"?>
<!-- Svg Vector Icons : http://www.onlinewebfonts.com/icon -->
<!DOCTYPE svg PUBLIC "-//W3C//DTD SVG 1.1//EN" "http://www.w3.org/Graphics/SVG/1.1/DTD/svg11.dtd">
<svg version="1.1" xmlns="http://www.w3.org/2000/svg" xmlns:xlink="http://www.w3.org/1999/xlink" x="0px" y="0px" viewBox="0 0 256 256" enable-background="new 0 0 256 256" xml:space="preserve">
<metadata> Svg Vector Icons : http://www.onlinewebfonts.com/icon </metadata>
<g> <path fill="#000000" d="M128,10C62.8,10,10,62.8,10,128s52.8,118,118,118c11.9,0,23.4-1.8,34.2-5c29.5-8.9,54.1-29.1,68.8-55.5 c5.9-10.6,10.3-22.3,12.7-34.6c0-0.1,0-0.1,0-0.2c1.4-7.4,2.2-15,2.2-22.7C246,62.8,193.2,10,128,10z M199.9,135L135,199.9 c-3.8,3.8-9.9,3.8-13.6,0l-61.6-61.6l-2.8-2.8l-0.8-0.8c-3.8-3.8-3.8-9.8,0-13.6l30.6-30.6l0.1-0.1l12.5-12.5l11.4,11.4 c-0.9,1.8-1.4,3.9-1.4,6c0,6.1,3.9,11.3,9.3,13.2v39c-5.4,1.9-9.3,7.1-9.3,13.2c0,7.7,6.3,14,14,14c7.7,0,14-6.3,14-14 c0-6.1-3.9-11.3-9.3-13.2v-39c0.5-0.2,0.9-0.3,1.4-0.6l18.7,18.7c-0.9,1.8-1.4,3.9-1.4,6c0,7.7,6.3,14,14,14c7.7,0,14-6.3,14-14 s-6.3-14-14-14c-2.2,0-4.2,0.5-6,1.4L136,101.4c0.9-1.8,1.4-3.9,1.4-6c0-7.7-6.3-14-14-14c-2.2,0-4.2,0.5-6,1.4l-11.4-11.4l6.4-6.4 l0,0l2.5-2.5l6.3-6.3c3.8-3.8,9.9-3.8,13.6,0l17.6,17.6l4.4,4.4l43.2,43.2v0C203.7,125.1,203.7,131.2,199.9,135z"/></g>
</svg>