<?xml version="1.0" encoding="utf-8"?>
<!-- Svg Vector Icons : http://www.onlinewebfonts.com/icon -->
<!DOCTYPE svg PUBLIC "-//W3C//DTD SVG 1.1//EN" "http://www.w3.org/Graphics/SVG/1.1/DTD/svg11.dtd">
<svg version="1.1" xmlns="http://www.w3.org/2000/svg" xmlns:xlink="http://www.w3.org/1999/xlink" x="0px" y="0px" viewBox="0 0 256 256" enable-background="new 0 0 256 256" xml:space="preserve">
<metadata> Svg Vector Icons : http://www.onlinewebfonts.com/icon </metadata>
<g><g><path fill="#000000" d="M124.1,98.6C124,76,123.8,30.1,122.6,10c-0.4,0.4-0.7,0.8-1.1,1.3C114,17.1,75.9,49.1,72.8,114c-2.5,51.5,30.9,85.3,44.9,97.1c3.4-14.9,7.8-53.3,6.7-92C124.2,116.2,124.2,108.8,124.1,98.6z"/><path fill="#000000" d="M128.8,212.4c-0.7,3.2-1.5,6.2-2.4,8.2l-1.2,2.4c2,9.8,1.7,20.8,1.7,20.8l6.6,2.2c0,0-1.3-17.5,0.5-25.9c0.1-0.4,0.2-0.7,0.3-1.1C132.5,217.3,130.1,214.6,128.8,212.4z"/><path fill="#000000" d="M181.3,97c-13-57.2-43.7-75.9-47-83.1c-0.1-0.1-0.2-0.3-0.3-0.4c0.7,14.7,1.2,40.8,1.4,85.1v0.1c0,9.7,0,17.4,0.2,20c0.7,25.5-0.8,48.3-2.3,62.8c0.2,14.3,5.2,26.8,8.2,28.9c1.2-1,2.6-2.1,4.1-3.5c0.2-0.1,0.3-0.2,0.3-0.2c0,0,0,0,0-0.1C161.5,192.2,191.4,156.1,181.3,97z"/></g></g>
</svg>