<?xml version="1.0" encoding="utf-8"?>
<!-- Svg Vector Icons : http://www.onlinewebfonts.com/icon -->
<!DOCTYPE svg PUBLIC "-//W3C//DTD SVG 1.1//EN" "http://www.w3.org/Graphics/SVG/1.1/DTD/svg11.dtd">
<svg version="1.1" xmlns="http://www.w3.org/2000/svg" xmlns:xlink="http://www.w3.org/1999/xlink" x="0px" y="0px" viewBox="0 0 256 256" enable-background="new 0 0 256 256" xml:space="preserve">
<metadata> Svg Vector Icons : http://www.onlinewebfonts.com/icon </metadata>
<g><g><path fill="#000000" d="M230.4,69.8c0-0.7-0.5-1.7-1.2-2L128.8,10.3c-0.7-0.4-1.7-0.4-2.4,0l-100,58.2c-0.7,0.4-1.2,1.3-1.2,2l0.4,115.7c0,0.7,0.5,1.7,1.2,2l100.4,57.5c0.7,0.4,1.7,0.4,2.4,0l100-58.2c0.6-0.4,1.2-1.3,1.2-2L230.4,69.8z M200.9,164c0,0.7-0.2,2-0.4,2.7l-1.8,3.2c-0.5,0.6-1.5,1.3-2.1,1.7l-62.5,37.9c-0.7,0.4-1.7,0.9-2.4,1.3c0,0-0.9,0.4-2,0.4c-0.9,0-1.5-0.2-1.5-0.2c-0.7-0.2-1.9-0.7-2.5-1l-26.9-13.1c-0.7-0.3-1-1.2-0.6-1.8l4.4-9c0.3-0.7,1.2-1,1.8-0.6l23.8,11.5c0.7,0.3,1.8,0.3,2.4-0.1l56.4-34.2c0.7-0.4,1.2-1.3,1.2-2.1V95.6c0-0.7-0.5-1.7-1.2-2.1l-56.1-33.1c-0.7-0.4-1.7-0.4-2.4,0L71,93.6c-0.7,0.4-1.2,1.3-1.2,2v66.1c0,0.7,0.5,1.8,1,2.3c0,0,11.5,10.4,17,10.1c5-0.2,9.5-4.6,9.5-4.6c0.5-0.5,1-1.6,1-2.3V95.3c0-0.7,0.6-1.4,1.4-1.4h10c0.7,0,1.4,0.6,1.4,1.4v74.1c0,0.7-0.1,2-0.2,2.7c0,0-0.2,1.2-0.9,2.2c-0.3,0.5-8.2,12-21.7,12.5c-10.2,0.4-20.3-5.5-29.9-17.6c-0.9-1.1-1.2-2.6-1.2-2.6c-0.1-0.7-0.2-2-0.2-2.7v-72c0-0.7,0.2-2,0.4-2.7l1.9-3.2c0.5-0.5,1.5-1.3,2.1-1.7l63.9-36.9c0.7-0.4,1.8-0.8,2.5-1l3.8,0c0.7,0.2,1.9,0.7,2.5,1l62.5,36.9c0.7,0.4,1.6,1.1,2.1,1.7l1.8,3.2c0.2,0.7,0.4,1.9,0.4,2.7L200.9,164L200.9,164z M160.8,141.8c-1.6-1.1-5.7-2.4-12.1-4c-8.7-2.2-14.7-4.1-18.1-5.7c-3.4-1.6-5.9-3.8-7.7-6.6c-1.7-2.8-2.6-6-2.6-9.4c0-3.1,0.7-6,2.1-8.7c1.4-2.6,3.4-4.9,5.8-6.6c1.9-1.4,4.4-2.5,7.5-3.5c3.2-0.9,6.6-1.4,10.3-1.4c5.5,0,10.3,0.8,14.5,2.4c4.1,1.6,7.2,3.7,9.2,6.4c2,2.7,3.7,9.5,3.7,9.5c0.2,0.7-0.3,1.4-1,1.5l-8.9,1.2c-0.7,0.1-1.5-0.4-1.8-1.1c0,0-1.6-5.1-4.2-7.1c-2.5-2-6.1-3-10.7-3c-5.4,0-9.3,0.9-11.7,2.7c-2.3,1.8-3.5,3.9-3.5,6.3c0,1.5,0.5,2.9,1.4,4.1c1,1.3,2.5,2.3,4.6,3.2c1.2,0.4,4.7,1.4,10.5,3c8.4,2.2,14.3,4.1,17.6,5.5c3.3,1.4,5.9,3.5,7.8,6.2c1.9,2.7,2.8,6.1,2.8,10.1c0,4-1.2,7.7-3.5,11.2c-2.3,3.5-5.6,6.2-10,8.1c-4.4,1.9-9.3,2.9-14.8,2.9c-9.1,0-16-1.9-20.8-5.7c-4.8-3.8-8.7-15.5-8.7-15.5c-0.2-0.7,0.2-1.4,0.9-1.5l9.1-1.4c0.7-0.1,1.5,0.4,1.7,1.1c0,0,2.1,7,5.1,9.5c3,2.5,7.2,3.8,12.6,3.8c5.4,0,9.5-1.1,12.1-3.3c2.6-2.2,3.9-4.8,3.9-7.8C164.3,145.4,163.1,143.3,160.8,141.8z"/></g></g>
</svg>