<?xml version="1.0" encoding="utf-8"?>
<!-- Svg Vector Icons : http://www.onlinewebfonts.com/icon -->
<!DOCTYPE svg PUBLIC "-//W3C//DTD SVG 1.1//EN" "http://www.w3.org/Graphics/SVG/1.1/DTD/svg11.dtd">
<svg version="1.1" xmlns="http://www.w3.org/2000/svg" xmlns:xlink="http://www.w3.org/1999/xlink" x="0px" y="0px" viewBox="0 0 256 256" enable-background="new 0 0 256 256" xml:space="preserve">
<metadata> Svg Vector Icons : http://www.onlinewebfonts.com/icon </metadata>
<g> <path fill="#000000" d="M72.5,88l-14.4,12.7C53,93.7,47.9,90.2,42.6,90.2c-2.6,0-4.6,0.7-6.3,2.1c-1.6,1.4-2.4,2.9-2.4,4.6 c0,1.7,0.6,3.3,1.8,4.9c1.6,2.1,6.3,6.4,14.3,13.1c7.4,6.2,11.9,10.1,13.5,11.8c3.9,4,6.8,7.8,8.4,11.4c1.6,3.6,2.5,7.6,2.5,11.9 c0,8.4-2.9,15.3-8.7,20.8c-5.8,5.5-13.4,8.2-22.7,8.2c-7.3,0-13.6-1.8-19-5.3c-5.4-3.6-10-9.2-13.9-16.8l16.4-9.9 c4.9,9,10.6,13.6,17,13.6c3.3,0,6.2-1,8.4-2.9c2.3-1.9,3.4-4.2,3.4-6.8c0-2.3-0.9-4.6-2.6-7c-1.7-2.3-5.5-5.9-11.3-10.6 c-11.1-9.1-18.3-16.1-21.6-21s-4.9-9.9-4.9-14.8c0-7.1,2.7-13.2,8.1-18.3c5.4-5.1,12.1-7.6,20-7.6c5.1,0,10,1.2,14.6,3.5 C62.1,77.5,67.1,81.8,72.5,88L72.5,88L72.5,88z M173.4,161.5l17.8,23h-23l-9-11.6c-7.5,4.1-15.8,6.1-25,6.1 c-15.3,0-28.1-5.3-38.3-15.9c-10.2-10.6-15.2-23.2-15.2-37.8c0-9.8,2.4-18.8,7.1-26.9S99,83.6,107.3,78.8 c8.3-4.8,17.2-7.2,26.7-7.2c14.5,0,27,5.2,37.4,15.7c10.4,10.5,15.6,23.2,15.6,38.3C187,139.4,182.4,151.4,173.4,161.5L173.4,161.5 L173.4,161.5z M161.3,145.7c4.1-6.1,6.2-12.9,6.2-20.3c0-9.7-3.3-17.9-9.8-24.7c-6.5-6.8-14.4-10.1-23.7-10.1 c-9.6,0-17.6,3.3-24,9.9c-6.5,6.6-9.7,14.9-9.7,25.1c0,11.3,4.1,20.3,12.2,26.8c6.4,5.1,13.6,7.7,21.7,7.7c4.6,0,9-0.9,13.1-2.7 l-18.3-23.6h23.2L161.3,145.7L161.3,145.7z M198.2,74.1h19.5v83.7H246v18.6h-47.8V74.1L198.2,74.1z"/></g>
</svg>